# Exported from Figuro at https://www.figuro.io

mtllib newscene.mtl
o cube6
v 980.6225296304513 -73.95293676524395 -779.7859706837974
v -630.1222042531876 -73.95293676524395 -779.7859706837974
v -631.2842865129746 319.7683972774271 -774.0687963990727
v 979.4604473706643 319.7683972774271 -774.0687963990727
v -630.1222042531876 -73.95293676524395 730.2779410104088
v -631.2842865129746 319.7683972774271 735.9951152951335
v 980.6225296304513 -73.95293676524395 730.2779410104088
v 979.4604473706643 319.7683972774271 735.9951152951335
v 1259.221674306145 350.7483972774271 998.26965439481
v -911.0455134484549 350.7483972774271 998.26965439481
v -911.0455134484549 350.7483972774271 -1036.3433354987494
v 1259.221674306145 350.7483972774271 -1036.3433354987494
v 1259.221674306145 386.5383972774271 998.26965439481
v -911.0455134484549 386.5383972774271 998.26965439481
v -911.0455134484549 386.5383972774271 -1036.3433354987494
v 1259.221674306145 386.5383972774271 -1036.3433354987494
v 879.9555215968475 392.2382584688398 -679.1263153121135
v -530.7382427124912 391.8483972774273 -679.807459383456
v 879.9555215968473 368.2316719445537 -679.1263153121137
v -530.738242712491 370.8286814031672 -679.8074593834561
v 874.6927447749576 391.89866958180147 646.2959607373166
v 874.6927447749574 371.2520703914757 646.2959607373165
v -534.9599015077156 391.89866958180147 646.2959607373166
v -534.9599015077154 372.0260910220677 646.2959607373165
# 24 vertices
vt -3.8260173725416573 2.2490953018649495
vt 2.465954244191307 2.2490953018649495
vt 2.4614148603640142 0.7111213407607658
vt -3.83055675636895 0.7111213407607658
vt -3.0237062359338776 2.2490953018649495
vt 2.874980919121615 2.2490953018649495
vt 2.8526482070719092 0.7111213407607658
vt -3.0460389479835834 0.7111213407607658
vt -2.465954244191307 2.2490953018649495
vt 3.8260173725416573 2.2490953018649495
vt 3.83055675636895 0.7111213407607658
vt -2.4614148603640142 0.7111213407607658
vt -2.874980919121615 2.2490953018649495
vt 3.0237062359338776 2.2490953018649495
vt 3.0460389479835834 0.7111213407607658
vt -2.8526482070719092 0.7111213407607658
vt 3.83055675636895 -2.0460389479835834
vt -2.4614148603640142 -2.0460389479835834
vt -2.4614148603640142 3.8526482070719092
vt 3.83055675636895 3.8526482070719092
vt 3.8260173725416573 3.874980919121615
vt -2.465954244191307 3.874980919121615
vt -3.558771536908027 4.899490837479727
vt 4.9188346652583785 4.899490837479727
vt -2.465954244191307 3.874980919121615
vt -2.465954244191307 -2.0237062359338776
vt -3.558771536908027 -3.04821615429199
vt -3.558771536908027 4.899490837479727
vt -2.465954244191307 -2.0237062359338776
vt 3.8260173725416573 -2.0237062359338776
vt 4.9188346652583785 -3.04821615429199
vt -3.558771536908027 -3.04821615429199
vt 3.8260173725416573 -2.0237062359338776
vt 3.8260173725416573 3.874980919121615
vt 4.9188346652583785 4.899490837479727
vt 4.9188346652583785 -3.04821615429199
vt 4.9188346652583785 2.3701109268649496
vt -3.558771536908027 2.3701109268649496
vt -3.558771536908027 2.5099156143649495
vt 4.9188346652583785 2.5099156143649495
vt 3.8994908374797266 2.3701109268649496
vt -4.04821615429199 2.3701109268649496
vt -4.04821615429199 2.5099156143649495
vt 3.8994908374797266 2.5099156143649495
vt 3.558771536908027 2.3701109268649496
vt -4.9188346652583785 2.3701109268649496
vt -4.9188346652583785 2.5099156143649495
vt 3.558771536908027 2.5099156143649495
vt 4.04821615429199 2.3701109268649496
vt -3.8994908374797266 2.3701109268649496
vt -3.8994908374797266 2.5099156143649495
vt 4.04821615429199 2.5099156143649495
vt -3.558771536908027 5.04821615429199
vt 4.9188346652583785 5.04821615429199
vt 3.4373262562376854 3.6528371691879435
vt -2.073196260595669 3.655497888216625
vt -2.073196260595668 2.4485495367311216
vt -2.073196260595669 2.53065780186495
vt 3.4373262562376854 2.5321806971439056
vt 3.437326256237685 2.438404968533413
vt 4.9188346652583785 5.04821615429199
vt 4.9188346652583785 -2.8994908374797266
vt 3.4167685342771783 -1.524593596630143
vt 3.4373262562376854 3.6528371691879435
vt -2.652837169187944 2.438404968533413
vt -2.6528371691879435 2.5321806971439056
vt 2.524593596630143 2.5308541780539118
vt 2.5245935966301425 2.4502033999667017
vt -3.558771536908027 -2.8994908374797266
vt -3.558771536908027 5.04821615429199
vt -2.073196260595669 3.655497888216625
vt -2.089687115264514 -1.524593596630143
vt -2.5245935966301425 2.453226918054952
vt -2.524593596630143 2.5308541780539118
vt 2.655497888216625 2.53065780186495
vt 2.6554978882166256 2.4485495367311216
vt -3.4167685342771774 2.4502033999667017
vt -3.4167685342771783 2.5308541780539118
vt 2.089687115264514 2.5308541780539118
vt 2.089687115264513 2.453226918054952
vt 4.9188346652583785 -2.8994908374797266
vt -3.558771536908027 -2.8994908374797266
vt -2.089687115264514 -1.524593596630143
vt 3.4167685342771783 -1.524593596630143
# 84 uvs
vn 0.3333318814164383 -0.3275097145836819 -0.3332981963038087
vn -0.3333318814164383 -0.32947739594876363 -0.3332981963038087
vn -0.2775150358841433 -0.4938631428293644 -0.27929989466203997
vn 0.2775150358841433 -0.49238738180555314 -0.27929989466203997
vn -0.3333318814164383 -0.3391569520829849 0.3332981963038087
vn -0.2775150358841433 -0.5011228099300303 0.27929989466204
vn 0.3333318814164383 -0.3371892707179031 0.3332981963038087
vn 0.2775150358841433 -0.4996470489062191 0.27929989466204
vn 0.27751612482181454 -0.49675509586779176 0.2793262474341835
vn -0.27751612482181454 -0.4967550958677917 0.2793262474341835
vn -0.27751612482181454 -0.4967550958677917 -0.27932624743418344
vn 0.27751612482181454 -0.49675509586779176 -0.27932624743418344
vn 0.25361995741129395 0.49994480256327023 0.2538377886866496
vn -0.25352629630643053 0.4999461431326275 0.25379868569530195
vn -0.2535527772787755 0.4999453910664596 -0.2538639996673959
vn 0.253593476438949 0.49994405049710233 -0.2538248966760483
vn -0.24652526365283967 0.49994405049710217 0.24518242160772902
vn 0.2463252450738651 0.4999453910664599 0.24693184377067506
vn -0.5002374801835773 -2.7158510304931564e-16 0.4980146365675546
vn 0.49975604470528123 7.340989507558175e-16 0.501591686876142
vn -0.2463780718626731 0.4999448025632727 -0.24715486388736838
vn -0.49999605854793405 5.059535296289269e-15 -0.5019853051480359
vn 0.2464724368640317 0.49994614313263047 -0.24540544172442227
vn 0.49999746634092446 6.065219350094402e-15 -0.4984082548394485
# 24 normals
usemtl ffffff
f 1/4/1 2/3/2 3/2/3 4/1/4 
f 2/8/2 5/7/5 6/6/6 3/5/3 
f 5/12/5 7/11/7 8/10/8 6/9/6 
f 7/16/7 1/15/1 4/14/4 8/13/8 
f 7/20/7 5/19/5 2/18/2 1/17/1 
f 9/84/9 10/83/10 6/82/6 8/81/8 
f 10/84/10 11/83/11 3/82/3 6/81/6 
f 11/84/11 12/83/12 4/82/4 3/81/3 
f 12/84/12 9/83/9 8/82/8 4/81/4 
f 13/84/13 14/83/14 10/82/10 9/81/9 
f 14/84/14 15/83/15 11/82/11 10/81/10 
f 15/84/15 16/83/16 12/82/12 11/81/11 
f 16/84/16 13/83/13 9/82/9 12/81/12 
f 18/84/18 17/83/17 16/82/16 15/81/15 
f 19/84/19 17/83/17 18/82/18 20/81/20 
f 17/84/17 21/83/21 13/82/13 16/81/16 
f 22/84/22 21/83/21 17/82/17 19/81/19 
f 23/84/23 18/83/18 15/82/15 14/81/14 
f 20/84/20 18/83/18 23/82/23 24/81/24 
f 24/84/24 23/83/23 21/82/21 22/81/22 
f 21/84/21 23/83/23 14/82/14 13/81/13 
# 21 polygons