# Exported from Figuro at https://www.figuro.io

mtllib newscene.mtl
o new model
v 874.6927447749574 371.2520703914757 646.2959607373165
v 874.6927447749572 -7.13785206855232 646.2959607373164
v 879.9555215968471 -166.4506932819528 -679.1263153121138
v 879.9555215968473 368.2316719445537 -679.1263153121137
v -530.7382427124909 -166.84055447336527 -679.8074593834563
v -530.738242712491 370.8286814031672 -679.8074593834561
v -534.9599015077152 -7.13785206855232 646.2959607373164
v -534.9599015077154 372.0260910220677 646.2959607373165
# 8 vertices
vt 2.5245935966301425 2.4502033999667017
vt 2.524593596630142 0.9721177653572175
vt -2.6528371691879444 0.3498019793673719
vt -2.652837169187944 2.438404968533413
vt 3.437326256237685 2.438404968533413
vt 3.437326256237684 0.3498019793673719
vt -2.0731962605956675 0.3482790840884169
vt -2.073196260595668 2.4485495367311216
vt 3.4167685342771765 -1.524593596630142
vt -2.0896871152645127 -1.524593596630142
vt -2.0731962605956675 3.655497888216626
vt 3.437326256237684 3.6528371691879444
vt 2.089687115264513 2.453226918054952
vt 2.0896871152645127 0.9721177653572175
vt -3.4167685342771765 0.9721177653572175
vt -3.4167685342771774 2.4502033999667017
vt 2.6554978882166256 2.4485495367311216
vt 2.655497888216626 0.3482790840884169
vt -2.524593596630142 0.9721177653572175
vt -2.5245935966301425 2.453226918054952
# 20 uvs
vn -0.4999960585479341 4.251210647282763e-16 -0.501985305148036
vn -0.33336683661637806 0.3309466217482006 -0.37447449633533997
vn -0.33352778437347347 0.33094662174820044 0.2921921314750537
vn -0.5002374801835773 1.6904917727786173e-16 0.49801463656755457
vn 0.3331345655524322 0.3309466217482004 0.29457683168077864
vn 0.4997560447052813 3.5477659822094747e-17 0.501591686876142
vn 0.3332955133095276 0.33094662174820055 -0.372089796129615
vn 0.4999974663409244 2.9154954727250933e-16 -0.4984082548394485
# 8 normals
usemtl 6696ff
f 4/4/4 3/3/3 2/2/2 1/1/1 
f 6/8/6 5/7/5 3/6/3 4/5/4 
f 3/12/3 5/11/5 7/10/7 2/9/2 
f 1/16/1 2/15/2 7/14/7 8/13/8 
f 8/20/8 7/19/7 5/18/5 6/17/6 
# 5 polygons